Anton-Bold.ufo
<glyph name="exclam" format="1">
  <advance width="487"/>
  <unicode hex="0021"/>
  <outline>
    <contour>
      <point x="65" y="1593" type="line" smooth="no"/>
      <point x="423" y="1593" type="line" smooth="no"/>
      <point x="353" y="439" type="line" smooth="no"/>
      <point x="135" y="439" type="line" smooth="no"/>
    </contour>
    <contour>
      <point x="65" y="1" type="line" smooth="no"/>
      <point x="423" y="1" type="line" smooth="no"/>
      <point x="423" y="299" type="line" smooth="no"/>
      <point x="65" y="299" type="line" smooth="no"/>
    </contour>
  </outline>
</glyph>
<glyph name="quotedbl" format="1">
  <advance width="901"/>
  <unicode hex="0022"/>
  <outline>
    <contour>
      <point x="329" y="957" type="line" smooth="no"/>
      <point x="405" y="1593" type="line" smooth="no"/>
      <point x="53" y="1593" type="line" smooth="no"/>
      <point x="153" y="957" type="line" smooth="no"/>
    </contour>
    <contour>
      <point x="769" y="957" type="line" smooth="no"/>
      <point x="845" y="1593" type="line" smooth="no"/>
      <point x="493" y="1593" type="line" smooth="no"/>
      <point x="593" y="957" type="line" smooth="no"/>
    </contour>
  </outline>
</glyph>
<glyph name="plus" format="1">
  <advance width="700"/>
  <unicode hex="002b"/>
  <outline>
    <contour>
      <point x="26" y="509" type="line" smooth="no"/>
      <point x="234" y="509" type="line" smooth="no"/>
      <point x="234" y="301" type="line" smooth="no"/>
      <point x="466" y="301" type="line" smooth="no"/>
      <point x="466" y="509" type="line" smooth="no"/>
      <point x="674" y="509" type="line" smooth="no"/>
      <point x="674" y="741" type="line" smooth="no"/>
      <point x="466" y="741" type="line" smooth="no"/>
      <point x="466" y="949" type="line" smooth="no"/>
      <point x="234" y="949" type="line" smooth="no"/>
      <point x="234" y="741" type="line" smooth="no"/>
      <point x="26" y="741" type="line" smooth="no"/>
    </contour>
  </outline>
</glyph>
<glyph name="hyphen" format="1">
  <advance width="650"/>
  <unicode hex="002d"/>
  <outline>
    <contour>
      <point x="67" y="509" type="line" smooth="no"/>
      <point x="583" y="509" type="line" smooth="no"/>
      <point x="583" y="741" type="line" smooth="no"/>
      <point x="67" y="741" type="line" smooth="no"/>
    </contour>
  </outline>
</glyph>
<glyph name="period" format="1">
  <advance width="491"/>
  <unicode hex="002e"/>
  <outline>
    <contour>
      <point x="67" y="1" type="line" smooth="no"/>
      <point x="425" y="1" type="line" smooth="no"/>
      <point x="425" y="299" type="line" smooth="no"/>
      <point x="67" y="299" type="line" smooth="no"/>
    </contour>
  </outline>
</glyph>
<glyph name="slash" format="1">
  <advance width="812"/>
  <unicode hex="002f"/>
  <outline>
    <contour>
      <point x="382" y="0" type="line" smooth="no"/>
      <point x="793" y="1767" type="line" smooth="no"/>
      <point x="429" y="1767" type="line" smooth="no"/>
      <point x="19" y="0" type="line" smooth="no"/>
    </contour>
  </outline>
</glyph>
<glyph name="zero" format="1">
  <advance width="1075"/>
  <unicode hex="0030"/>
  <outline>
    <contour>
      <point x="536" y="-18" type="curve" smooth="yes"/>
      <point x="307" y="-18"/>
      <point x="70" y="121"/>
      <point x="70" y="482" type="curve" smooth="yes"/>
      <point x="70" y="1231" type="line" smooth="yes"/>
      <point x="70" y="1567"/>
      <point x="236" y="1729"/>
      <point x="536" y="1729" type="curve" smooth="yes"/>
      <point x="836" y="1729"/>
      <point x="1002" y="1567"/>
      <point x="1002" y="1231" type="curve" smooth="yes"/>
      <point x="1002" y="482" type="line" smooth="yes"/>
      <point x="1002" y="121"/>
      <point x="765" y="-18"/>
    </contour>
    <contour>
      <point x="536" y="330" type="curve" smooth="yes"/>
      <point x="573" y="330"/>
      <point x="623" y="365"/>
      <point x="623" y="447" type="curve" smooth="yes"/>
      <point x="623" y="1273" type="line" smooth="yes"/>
      <point x="623" y="1338"/>
      <point x="622" y="1424"/>
      <point x="536" y="1424" type="curve" smooth="yes"/>
      <point x="450" y="1424"/>
      <point x="449" y="1338"/>
      <point x="449" y="1273" type="curve" smooth="yes"/>
      <point x="449" y="447" type="line" smooth="yes"/>
      <point x="449" y="365"/>
      <point x="499" y="330"/>
    </contour>
  </outline>
</glyph>
<glyph name="one" format="1">
  <advance width="707"/>
  <unicode hex="0031"/>
  <outline>
    <contour>
      <point x="346" y="1692" type="curve" smooth="no"/>
      <point x="629" y="1692" type="line" smooth="no"/>
      <point x="629" y="0" type="line" smooth="no"/>
      <point x="256" y="0" type="line" smooth="no"/>
      <point x="256" y="1260" type="line" smooth="no"/>
      <point x="256" y="1260"/>
      <point x="150" y="1207"/>
      <point x="38" y="1206" type="curve" smooth="no"/>
      <point x="38" y="1207"/>
      <point x="40" y="1321"/>
      <point x="40" y="1402" type="curve" smooth="yes"/>
      <point x="40" y="1442"/>
      <point x="39" y="1474"/>
      <point x="38" y="1479" type="curve" smooth="no"/>
      <point x="106" y="1479"/>
      <point x="346" y="1559"/>
    </contour>
  </outline>
</glyph>
<glyph name="six" format="1">
  <advance width="1075"/>
  <unicode hex="0036"/>
  <outline>
    <contour>
      <point x="545" y="-21" type="curve" smooth="yes"/>
      <point x="932" y="-21"/>
      <point x="1004" y="247"/>
      <point x="1004" y="557" type="curve" smooth="yes"/>
      <point x="1004" y="915"/>
      <point x="918" y="1087"/>
      <point x="641" y="1087" type="curve" smooth="yes"/>
      <point x="490" y="1087"/>
      <point x="444" y="986"/>
      <point x="444" y="986" type="curve" smooth="no"/>
      <point x="444" y="1275" type="line" smooth="yes"/>
      <point x="444" y="1316"/>
      <point x="444" y="1398"/>
      <point x="549" y="1398" type="curve" smooth="yes"/>
      <point x="654" y="1398"/>
      <point x="635" y="1235"/>
      <point x="637" y="1178" type="curve" smooth="no"/>
      <point x="1006" y="1178" type="line" smooth="no"/>
      <point x="1006" y="1363" type="line" smooth="yes"/>
      <point x="1006" y="1589"/>
      <point x="749" y="1698"/>
      <point x="555" y="1698" type="curve" smooth="yes"/>
      <point x="68" y="1698"/>
      <point x="70" y="1332"/>
      <point x="70" y="965" type="curve" smooth="yes"/>
      <point x="70" y="567" type="line" smooth="yes"/>
      <point x="70" y="236"/>
      <point x="120" y="-21"/>
    </contour>
    <contour>
      <point x="444" y="664" type="line" smooth="yes"/>
      <point x="444" y="723"/>
      <point x="463" y="785"/>
      <point x="537" y="785" type="curve" smooth="yes"/>
      <point x="605" y="785"/>
      <point x="618" y="703"/>
      <point x="618" y="645" type="curve" smooth="yes"/>
      <point x="618" y="475" type="line" smooth="yes"/>
      <point x="618" y="394"/>
      <point x="622" y="293"/>
      <point x="532" y="293" type="curve" smooth="yes"/>
      <point x="481" y="293"/>
      <point x="444" y="328"/>
      <point x="444" y="419" type="curve" smooth="yes"/>
    </contour>
  </outline>
</glyph>
<glyph name="colon" format="1">
  <advance width="491"/>
  <unicode hex="003a"/>
  <outline>
    <contour>
      <point x="67" y="237" type="line" smooth="no"/>
      <point x="425" y="237" type="line" smooth="no"/>
      <point x="425" y="535" type="line" smooth="no"/>
      <point x="67" y="535" type="line" smooth="no"/>
    </contour>
    <contour>
      <point x="67" y="976" type="line" smooth="no"/>
      <point x="425" y="976" type="line" smooth="no"/>
      <point x="425" y="1274" type="line" smooth="no"/>
      <point x="67" y="1274" type="line" smooth="no"/>
    </contour>
  </outline>
</glyph>
<glyph name="less" format="1">
  <advance width="651"/>
  <unicode hex="003c"/>
  <outline>
    <contour>
      <point x="15" y="545" type="line" smooth="no"/>
      <point x="15" y="959" type="line" smooth="no"/>
      <point x="585" y="1300" type="line" smooth="no"/>
      <point x="585" y="941" type="line" smooth="no"/>
      <point x="243" y="749" type="line" smooth="no"/>
      <point x="585" y="558" type="line" smooth="no"/>
      <point x="585" y="200" type="line" smooth="no"/>
    </contour>
  </outline>
</glyph>
<glyph name="equal" format="1">
  <advance width="648"/>
  <unicode hex="003d"/>
  <outline>
    <contour>
      <point x="67" y="509" type="line" smooth="no"/>
      <point x="581" y="509" type="line" smooth="no"/>
      <point x="581" y="741" type="line" smooth="no"/>
      <point x="67" y="741" type="line" smooth="no"/>
    </contour>
    <contour>
      <point x="67" y="892" type="line" smooth="no"/>
      <point x="581" y="892" type="line" smooth="no"/>
      <point x="581" y="1116" type="line" smooth="no"/>
      <point x="67" y="1116" type="line" smooth="no"/>
    </contour>
  </outline>
</glyph>
<glyph name="F" format="1">
  <advance width="829"/>
  <unicode hex="0046"/>
  <outline>
    <contour>
      <point x="72" y="0" type="line" smooth="no"/>
      <point x="426" y="0" type="line" smooth="no"/>
      <point x="426" y="723" type="line" smooth="no"/>
      <point x="758" y="723" type="line" smooth="no"/>
      <point x="758" y="1030" type="line" smooth="no"/>
      <point x="426" y="1030" type="line" smooth="no"/>
      <point x="426" y="1282" type="line" smooth="no"/>
      <point x="776" y="1282" type="line" smooth="no"/>
      <point x="776" y="1593" type="line" smooth="no"/>
      <point x="72" y="1593" type="line" smooth="no"/>
    </contour>
  </outline>
</glyph>
<glyph name="H" format="1">
  <advance width="1020"/>
  <unicode hex="0048"/>
  <outline>
    <contour>
      <point x="424" y="723" type="line" smooth="no"/>
      <point x="424" y="0" type="line" smooth="no"/>
      <point x="74" y="0" type="line" smooth="no"/>
      <point x="74" y="1593" type="line" smooth="no"/>
      <point x="424" y="1593" type="line" smooth="no"/>
      <point x="424" y="1024" type="line" smooth="no"/>
      <point x="590" y="1024" type="line" smooth="no"/>
      <point x="590" y="1593" type="line" smooth="no"/>
      <point x="940" y="1593" type="line" smooth="no"/>
      <point x="940" y="0" type="line" smooth="no"/>
      <point x="590" y="0" type="line" smooth="no"/>
      <point x="590" y="723" type="line" smooth="no"/>
    </contour>
  </outline>
</glyph>
<glyph name="K" format="1">
  <advance width="1053"/>
  <unicode hex="004b"/>
  <outline>
    <contour>
      <point x="586" y="1593" type="line" smooth="no"/>
      <point x="422" y="956" type="line" smooth="no"/>
      <point x="422" y="1593" type="line" smooth="no"/>
      <point x="74" y="1593" type="line" smooth="no"/>
      <point x="74" y="0" type="line" smooth="no"/>
      <point x="424" y="0" type="line" smooth="no"/>
      <point x="424" y="772" type="line" smooth="no"/>
      <point x="616" y="0" type="line" smooth="no"/>
      <point x="981" y="0" type="line" smooth="no"/>
      <point x="743" y="864" type="line" smooth="no"/>
      <point x="940" y="1593" type="line" smooth="no"/>
    </contour>
  </outline>
</glyph>
<glyph name="T" format="1">
  <advance width="903"/>
  <unicode hex="0054"/>
  <outline>
    <contour>
      <point x="66" y="1593" type="line" smooth="no"/>
      <point x="66" y="1286" type="line" smooth="no"/>
      <point x="275" y="1286" type="line" smooth="no"/>
      <point x="275" y="0" type="line" smooth="no"/>
      <point x="627" y="0" type="line" smooth="no"/>
      <point x="627" y="1286" type="line" smooth="no"/>
      <point x="836" y="1286" type="line" smooth="no"/>
      <point x="836" y="1593" type="line" smooth="no"/>
    </contour>
  </outline>
</glyph>
<glyph name="W" format="1">
  <advance width="1532"/>
  <unicode hex="0057"/>
  <outline>
    <contour>
      <point x="505" y="588" type="line" smooth="no"/>
      <point x="408" y="1593" type="line" smooth="no"/>
      <point x="64" y="1593" type="line" smooth="no"/>
      <point x="253" y="0" type="line" smooth="no"/>
      <point x="682" y="0" type="line" smooth="no"/>
      <point x="766" y="768" type="line" smooth="no"/>
      <point x="854" y="0" type="line" smooth="no"/>
      <point x="1276" y="0" type="line" smooth="no"/>
      <point x="1468" y="1593" type="line" smooth="no"/>
      <point x="1120" y="1593" type="line" smooth="no"/>
      <point x="1026" y="588" type="line" smooth="no"/>
      <point x="932" y="1593" type="line" smooth="no"/>
      <point x="604" y="1593" type="line" smooth="no"/>
    </contour>
  </outline>
</glyph>
<glyph name="X" format="1">
  <advance width="1067"/>
  <unicode hex="0058"/>
  <outline>
    <contour>
      <point x="534" y="623" type="line" smooth="no"/>
      <point x="420" y="0" type="line" smooth="no"/>
      <point x="63" y="0" type="line" smooth="no"/>
      <point x="252" y="846" type="line" smooth="no"/>
      <point x="102" y="1593" type="line" smooth="no"/>
      <point x="446" y="1593" type="line" smooth="no"/>
      <point x="537" y="1049" type="line" smooth="no"/>
      <point x="618" y="1593" type="line" smooth="no"/>
      <point x="963" y="1593" type="line" smooth="no"/>
      <point x="813" y="846" type="line" smooth="no"/>
      <point x="1001" y="0" type="line" smooth="no"/>
      <point x="645" y="0" type="line" smooth="no"/>
    </contour>
  </outline>
</glyph>
<glyph name="backslash" format="1">
  <advance width="812"/>
  <unicode hex="005c"/>
  <outline>
    <contour>
      <point x="430" y="0" type="line" smooth="no"/>
      <point x="19" y="1767" type="line" smooth="no"/>
      <point x="383" y="1767" type="line" smooth="no"/>
      <point x="793" y="0" type="line" smooth="no"/>
    </contour>
  </outline>
</glyph>
<glyph name="bracketright" format="1">
  <advance width="688"/>
  <unicode hex="005d"/>
  <outline>
    <contour>
      <point x="269" y="1312" type="line" smooth="no"/>
      <point x="67" y="1312" type="line" smooth="no"/>
      <point x="67" y="1593" type="line" smooth="no"/>
      <point x="621" y="1593" type="line" smooth="no"/>
      <point x="621" y="0" type="line" smooth="no"/>
      <point x="67" y="0" type="line" smooth="no"/>
      <point x="67" y="281" type="line" smooth="no"/>
      <point x="269" y="281" type="line" smooth="no"/>
    </contour>
  </outline>
</glyph>
<glyph name="asciicircum" format="1">
  <advance width="970"/>
  <unicode hex="005e"/>
  <outline>
    <contour>
      <point x="689" y="1355" type="line" smooth="no"/>
      <point x="281" y="1355" type="line" smooth="no"/>
      <point x="40" y="432" type="line" smooth="no"/>
      <point x="399" y="432" type="line" smooth="no"/>
      <point x="485" y="1027" type="line" smooth="no"/>
      <point x="571" y="432" type="line" smooth="no"/>
      <point x="930" y="432" type="line" smooth="no"/>
    </contour>
  </outline>
</glyph>
<glyph name="underscore" format="1">
  <advance width="650"/>
  <unicode hex="005f"/>
  <outline>
    <contour>
      <point x="0" y="-232" type="line" smooth="no"/>
      <point x="651" y="-232" type="line" smooth="no"/>
      <point x="651" y="0" type="line" smooth="no"/>
      <point x="0" y="0" type="line" smooth="no"/>
    </contour>
  </outline>
</glyph>
<glyph name="grave" format="1">
  <advance width="650"/>
  <unicode hex="0060"/>
  <outline>
    <contour>
      <point x="543" y="1592" type="line" smooth="no"/>
      <point x="27" y="1682" type="line" smooth="no"/>
      <point x="87" y="1894" type="line" smooth="no"/>
      <point x="583" y="1712" type="line" smooth="no"/>
    </contour>
  </outline>
</glyph>
<glyph name="k" format="1">
  <advance width="1075"/>
  <unicode hex="006b"/>
  <outline>
    <contour>
      <point x="76" y="0" type="line" smooth="no"/>
      <point x="430" y="0" type="line" smooth="no"/>
      <point x="430" y="707" type="line" smooth="no"/>
      <point x="653" y="0" type="line" smooth="no"/>
      <point x="1034" y="0" type="line" smooth="no"/>
      <point x="748" y="848" type="line" smooth="no"/>
      <point x="973" y="1500" type="line" smooth="no"/>
      <point x="602" y="1500" type="line" smooth="no"/>
      <point x="430" y="983" type="line" smooth="no"/>
      <point x="430" y="1769" type="line" smooth="no"/>
      <point x="76" y="1769" type="line" smooth="no"/>
    </contour>
  </outline>
</glyph>
<glyph name="v" format="1">
  <advance width="1010"/>
  <unicode hex="0076"/>
  <outline>
    <contour>
      <point x="707" y="0" type="line" smooth="no"/>
      <point x="293" y="0" type="line" smooth="no"/>
      <point x="52" y="1500" type="line" smooth="no"/>
      <point x="411" y="1500" type="line" smooth="no"/>
      <point x="497" y="618" type="line" smooth="no"/>
      <point x="594" y="1500" type="line" smooth="no"/>
      <point x="952" y="1500" type="line" smooth="no"/>
    </contour>
  </outline>
</glyph>
<glyph name="w" format="1">
  <advance width="1538"/>
  <unicode hex="0077"/>
  <outline>
    <contour>
      <point x="946" y="1500" type="line" smooth="no"/>
      <point x="1030" y="694" type="line" smooth="no"/>
      <point x="1122" y="1500" type="line" smooth="no"/>
      <point x="1479" y="1500" type="line" smooth="no"/>
      <point x="1268" y="0" type="line" smooth="no"/>
      <point x="852" y="0" type="line" smooth="no"/>
      <point x="764" y="801" type="line" smooth="no"/>
      <point x="680" y="0" type="line" smooth="no"/>
      <point x="264" y="0" type="line" smooth="no"/>
      <point x="53" y="1500" type="line" smooth="no"/>
      <point x="410" y="1500" type="line" smooth="no"/>
      <point x="499" y="694" type="line" smooth="no"/>
      <point x="586" y="1500" type="line" smooth="no"/>
    </contour>
  </outline>
</glyph>
<glyph name="y" format="1">
  <advance width="1018"/>
  <unicode hex="0079"/>
  <outline>
    <contour>
      <point x="86" y="-186" type="line" smooth="no"/>
      <point x="451" y="-186" type="line" smooth="yes"/>
      <point x="580" y="-186"/>
      <point x="678" y="-186"/>
      <point x="707" y="-14" type="curve" smooth="yes"/>
      <point x="965" y="1501" type="line" smooth="no"/>
      <point x="610" y="1501" type="line" smooth="no"/>
      <point x="502" y="699" type="line" smooth="no"/>
      <point x="412" y="1501" type="line" smooth="no"/>
      <point x="59" y="1501" type="line" smooth="no"/>
      <point x="270" y="155" type="line" smooth="yes"/>
      <point x="273" y="135"/>
      <point x="275" y="117"/>
      <point x="275" y="103" type="curve" smooth="yes"/>
      <point x="275" y="59"/>
      <point x="254" y="41"/>
      <point x="178" y="41" type="curve" smooth="yes"/>
      <point x="86" y="41" type="line" smooth="no"/>
    </contour>
  </outline>
</glyph>
<glyph name="z" format="1">
  <advance width="954"/>
  <unicode hex="007a"/>
  <outline>
    <contour>
      <point x="72" y="0" type="line" smooth="no"/>
      <point x="856" y="0" type="line" smooth="no"/>
      <point x="856" y="301" type="line" smooth="no"/>
      <point x="479" y="301" type="line" smooth="no"/>
      <point x="881" y="1194" type="line" smooth="no"/>
      <point x="881" y="1500" type="line" smooth="no"/>
      <point x="111" y="1500" type="line" smooth="no"/>
      <point x="111" y="1194" type="line" smooth="no"/>
      <point x="485" y="1194" type="line" smooth="no"/>
      <point x="72" y="272" type="line" smooth="no"/>
    </contour>
  </outline>
</glyph>
<glyph name="bar" format="1">
  <advance width="457"/>
  <unicode hex="007c"/>
  <outline>
    <contour>
      <point x="386" y="-84" type="line" smooth="no"/>
      <point x="386" y="1683" type="line" smooth="no"/>
      <point x="67" y="1683" type="line" smooth="no"/>
      <point x="67" y="-84" type="line" smooth="no"/>
    </contour>
  </outline>
</glyph>
<glyph name="sterling" format="1">
  <advance width="1021"/>
  <unicode hex="00a3"/>
  <outline>
    <contour>
      <point x="51" y="673" type="line" smooth="no"/>
      <point x="160" y="673" type="line" smooth="no"/>
      <point x="161" y="634"/>
      <point x="162" y="599"/>
      <point x="162" y="568" type="curve" smooth="yes"/>
      <point x="162" y="438"/>
      <point x="144" y="368"/>
      <point x="46" y="281" type="curve" smooth="no"/>
      <point x="46" y="0" type="line" smooth="no"/>
      <point x="928" y="0" type="line" smooth="no"/>
      <point x="928" y="311" type="line" smooth="no"/>
      <point x="458" y="311" type="line" smooth="no"/>
      <point x="458" y="311"/>
      <point x="534" y="382"/>
      <point x="540" y="571" type="curve" smooth="no"/>
      <point x="539" y="673" type="line" smooth="no"/>
      <point x="838" y="673" type="line" smooth="no"/>
      <point x="838" y="905" type="line" smooth="no"/>
      <point x="539" y="905" type="line" smooth="no"/>
      <point x="538" y="1184" type="line" smooth="no"/>
      <point x="542" y="1262"/>
      <point x="567" y="1296"/>
      <point x="599" y="1296" type="curve" smooth="yes"/>
      <point x="644" y="1296"/>
      <point x="658" y="1253"/>
      <point x="658" y="1185" type="curve" smooth="no"/>
      <point x="967" y="1185" type="line" smooth="no"/>
      <point x="967" y="1528"/>
      <point x="782" y="1607"/>
      <point x="631" y="1607" type="curve" smooth="yes"/>
      <point x="167" y="1607"/>
      <point x="156" y="1261"/>
      <point x="156" y="905" type="curve" smooth="no"/>
      <point x="51" y="905" type="line" smooth="no"/>
    </contour>
  </outline>
</glyph>
<glyph name="yen" format="1">
  <advance width="1022"/>
  <unicode hex="00a5"/>
  <outline>
    <contour>
      <point x="204" y="475" type="line" smooth="no"/>
      <point x="342" y="475" type="line" smooth="no"/>
      <point x="342" y="408" type="line" smooth="no"/>
      <point x="204" y="408" type="line" smooth="no"/>
      <point x="204" y="176" type="line" smooth="no"/>
      <point x="342" y="176" type="line" smooth="no"/>
      <point x="342" y="0" type="line" smooth="no"/>
      <point x="674" y="0" type="line" smooth="no"/>
      <point x="674" y="176" type="line" smooth="no"/>
      <point x="808" y="176" type="line" smooth="no"/>
      <point x="808" y="408" type="line" smooth="no"/>
      <point x="674" y="408" type="line" smooth="no"/>
      <point x="674" y="475" type="line" smooth="no"/>
      <point x="808" y="475" type="line" smooth="no"/>
      <point x="808" y="699" type="line" smooth="no"/>
      <point x="720" y="699" type="line" smooth="no"/>
      <point x="954" y="1593" type="line" smooth="no"/>
      <point x="606" y="1593" type="line" smooth="no"/>
      <point x="508" y="1053" type="line" smooth="no"/>
      <point x="410" y="1593" type="line" smooth="no"/>
      <point x="61" y="1593" type="line" smooth="no"/>
      <point x="296" y="699" type="line" smooth="no"/>
      <point x="204" y="699" type="line" smooth="no"/>
    </contour>
  </outline>
</glyph>
<glyph name="brokenbar" format="1">
  <advance width="457"/>
  <unicode hex="00a6"/>
  <outline>
    <contour>
      <point x="386" y="-84" type="line" smooth="no"/>
      <point x="386" y="676" type="line" smooth="no"/>
      <point x="67" y="676" type="line" smooth="no"/>
      <point x="67" y="-84" type="line" smooth="no"/>
    </contour>
    <contour>
      <point x="386" y="923" type="line" smooth="no"/>
      <point x="386" y="1683" type="line" smooth="no"/>
      <point x="67" y="1683" type="line" smooth="no"/>
      <point x="67" y="923" type="line" smooth="no"/>
    </contour>
  </outline>
</glyph>
<glyph name="logicalnot" format="1">
  <advance width="858"/>
  <unicode hex="00ac"/>
  <outline>
    <contour>
      <point x="63" y="979" type="line" smooth="no"/>
      <point x="63" y="801" type="line" smooth="no"/>
      <point x="481" y="801" type="line" smooth="no"/>
      <point x="481" y="439" type="line" smooth="no"/>
      <point x="792" y="439" type="line" smooth="no"/>
      <point x="792" y="979" type="line" smooth="no"/>
    </contour>
  </outline>
</glyph>
<glyph name="acute" format="1">
  <advance width="650"/>
  <unicode hex="00b4"/>
  <outline>
    <contour>
      <point x="67" y="1592" type="line" smooth="no"/>
      <point x="583" y="1682" type="line" smooth="no"/>
      <point x="523" y="1894" type="line" smooth="no"/>
      <point x="27" y="1712" type="line" smooth="no"/>
    </contour>
  </outline>
</glyph>
<glyph name="uni00B9" format="1">
  <advance width="415"/>
  <unicode hex="00b9"/>
  <outline>
    <contour>
      <point x="190" y="1607" type="curve" smooth="no"/>
      <point x="349" y="1607" type="line" smooth="no"/>
      <point x="349" y="656" type="line" smooth="no"/>
      <point x="139" y="656" type="line" smooth="no"/>
      <point x="139" y="1364" type="line" smooth="no"/>
      <point x="139" y="1364"/>
      <point x="80" y="1334"/>
      <point x="16" y="1334" type="curve" smooth="no"/>
      <point x="16" y="1334"/>
      <point x="18" y="1398"/>
      <point x="18" y="1444" type="curve" smooth="yes"/>
      <point x="18" y="1466"/>
      <point x="17" y="1484"/>
      <point x="16" y="1487" type="curve" smooth="no"/>
      <point x="55" y="1487"/>
      <point x="190" y="1532"/>
    </contour>
  </outline>
</glyph>
<glyph name="AE" format="1">
  <advance width="1361"/>
  <unicode hex="00c6"/>
  <outline>
    <contour>
      <point x="629" y="0" type="line" smooth="no"/>
      <point x="1296" y="0" type="line" smooth="no"/>
      <point x="1296" y="311" type="line" smooth="no"/>
      <point x="987" y="311" type="line" smooth="no"/>
      <point x="987" y="674" type="line" smooth="no"/>
      <point x="1259" y="674" type="line" smooth="no"/>
      <point x="1259" y="973" type="line" smooth="no"/>
      <point x="987" y="973" type="line" smooth="no"/>
      <point x="987" y="1284" type="line" smooth="no"/>
      <point x="1273" y="1284" type="line" smooth="no"/>
      <point x="1273" y="1593" type="line" smooth="no"/>
      <point x="361" y="1593" type="line" smooth="no"/>
      <point x="40" y="0" type="line" smooth="no"/>
      <point x="381" y="0" type="line" smooth="no"/>
      <point x="420" y="240" type="line" smooth="no"/>
      <point x="628" y="240" type="line" smooth="no"/>
      <point x="628" y="120" type="line" smooth="no"/>
    </contour>
    <contour>
      <point x="624" y="1294" type="line" smooth="no"/>
      <point x="624" y="530" type="line" smooth="no"/>
      <point x="466" y="530" type="line" smooth="no"/>
      <point x="596" y="1294" type="line" smooth="no"/>
    </contour>
  </outline>
</glyph>
<glyph name="lslash" format="1">
  <advance width="510"/>
  <unicode hex="0142"/>
  <outline>
    <component base="l"/>
    <contour>
      <point x="-3" y="509" type="line" smooth="no"/>
      <point x="513" y="741" type="line" smooth="no"/>
      <point x="513" y="973" type="line" smooth="no"/>
      <point x="-3" y="741" type="line" smooth="no"/>
    </contour>
  </outline>
</glyph>
<glyph name="breve" format="1">
  <advance width="1015"/>
  <unicode hex="02d8"/>
  <outline>
    <contour>
      <point x="582" y="1832" type="curve" smooth="yes"/>
      <point x="516" y="1832"/>
      <point x="467" y="1863"/>
      <point x="467" y="1944" type="curve" smooth="yes"/>
      <point x="467" y="1945"/>
      <point x="151" y="1945"/>
      <point x="151" y="1945" type="curve" smooth="no"/>
      <point x="149" y="1931"/>
      <point x="148" y="1916"/>
      <point x="148" y="1903" type="curve" smooth="yes"/>
      <point x="148" y="1712"/>
      <point x="310" y="1592"/>
      <point x="580" y="1592" type="curve" smooth="yes"/>
      <point x="856" y="1592"/>
      <point x="1015" y="1714"/>
      <point x="1015" y="1910" type="curve" smooth="yes"/>
      <point x="1015" y="1921"/>
      <point x="1014" y="1933"/>
      <point x="1013" y="1945" type="curve" smooth="no"/>
      <point x="1013" y="1945"/>
      <point x="697" y="1945"/>
      <point x="697" y="1944" type="curve" smooth="yes"/>
      <point x="697" y="1863"/>
      <point x="648" y="1832"/>
    </contour>
  </outline>
</glyph>
<glyph name="tilde" format="1">
  <advance width="1015"/>
  <unicode hex="02dc"/>
  <outline>
    <contour>
      <point x="360" y="1702" type="curve" smooth="yes"/>
      <point x="334" y="1702"/>
      <point x="308" y="1684"/>
      <point x="282" y="1623" type="curve" smooth="no"/>
      <point x="40" y="1739" type="line" smooth="no"/>
      <point x="119" y="1935"/>
      <point x="225" y="2038"/>
      <point x="370" y="2038" type="curve" smooth="yes"/>
      <point x="477" y="2038"/>
      <point x="561" y="1930"/>
      <point x="653" y="1930" type="curve" smooth="yes"/>
      <point x="678" y="1930"/>
      <point x="705" y="1948"/>
      <point x="732" y="2009" type="curve" smooth="no"/>
      <point x="974" y="1893" type="line" smooth="no"/>
      <point x="894" y="1697"/>
      <point x="787" y="1592"/>
      <point x="642" y="1592" type="curve" smooth="yes"/>
      <point x="521" y="1592"/>
      <point x="449" y="1702"/>
    </contour>
  </outline>
</glyph>
<glyph name="uni030F" format="1">
  <advance width="748"/>
  <unicode hex="030f"/>
  <outline>
    <contour>
      <point x="232" y="1236" type="line" smooth="no"/>
      <point x="533" y="1665" type="line" smooth="no"/>
      <point x="340" y="1773" type="line" smooth="no"/>
      <point x="119" y="1294" type="line" smooth="no"/>
    </contour>
    <contour>
      <point x="534" y="1236" type="line" smooth="no"/>
      <point x="835" y="1665" type="line" smooth="no"/>
      <point x="642" y="1773" type="line" smooth="no"/>
      <point x="421" y="1294" type="line" smooth="no"/>
    </contour>
  </outline>
</glyph>
<glyph name="emdash" format="1">
  <advance width="1166"/>
  <unicode hex="2014"/>
  <outline>
    <contour>
      <point x="67" y="741" type="line" smooth="no"/>
      <point x="67" y="509" type="line" smooth="no"/>
      <point x="1099" y="509" type="line" smooth="no"/>
      <point x="1099" y="741" type="line" smooth="no"/>
    </contour>
  </outline>
</glyph>
<glyph name="quotesinglbase" format="1">
  <advance width="479"/>
  <unicode hex="201a"/>
  <outline>
    <contour>
      <point x="52" y="0" type="line" smooth="no"/>
      <point x="179" y="0" type="line" smooth="no"/>
      <point x="113" y="-236" type="line" smooth="no"/>
      <point x="324" y="-236" type="line" smooth="no"/>
      <point x="426" y="9" type="line" smooth="no"/>
      <point x="426" y="298" type="line" smooth="no"/>
      <point x="52" y="298" type="line" smooth="no"/>
    </contour>
  </outline>
</glyph>
<glyph name="quotedblright" format="1">
  <advance width="967"/>
  <unicode hex="201d"/>
  <outline>
    <contour>
      <point x="533" y="1294" type="line" smooth="no"/>
      <point x="660" y="1294" type="line" smooth="no"/>
      <point x="594" y="1058" type="line" smooth="no"/>
      <point x="805" y="1058" type="line" smooth="no"/>
      <point x="907" y="1303" type="line" smooth="no"/>
      <point x="907" y="1592" type="line" smooth="no"/>
      <point x="533" y="1592" type="line" smooth="no"/>
    </contour>
    <contour>
      <point x="60" y="1294" type="line" smooth="no"/>
      <point x="187" y="1294" type="line" smooth="no"/>
      <point x="121" y="1058" type="line" smooth="no"/>
      <point x="332" y="1058" type="line" smooth="no"/>
      <point x="434" y="1303" type="line" smooth="no"/>
      <point x="434" y="1592" type="line" smooth="no"/>
      <point x="60" y="1592" type="line" smooth="no"/>
    </contour>
  </outline>
</glyph>
<glyph name="guilsinglleft" format="1">
  <advance width="594"/>
  <unicode hex="2039"/>
  <outline>
    <contour>
      <point x="18" y="545" type="line" smooth="no"/>
      <point x="18" y="959" type="line" smooth="no"/>
      <point x="528" y="1230" type="line" smooth="no"/>
      <point x="528" y="871" type="line" smooth="no"/>
      <point x="216" y="749" type="line" smooth="no"/>
      <point x="528" y="618" type="line" smooth="no"/>
      <point x="528" y="260" type="line" smooth="no"/>
    </contour>
  </outline>
</glyph>
<glyph name="guilsinglright" format="1">
  <advance width="595"/>
  <unicode hex="203a"/>
  <outline>
    <contour>
      <point x="577" y="545" type="line" smooth="no"/>
      <point x="577" y="959" type="line" smooth="no"/>
      <point x="67" y="1230" type="line" smooth="no"/>
      <point x="67" y="871" type="line" smooth="no"/>
      <point x="379" y="749" type="line" smooth="no"/>
      <point x="67" y="618" type="line" smooth="no"/>
      <point x="67" y="260" type="line" smooth="no"/>
    </contour>
  </outline>
</glyph>
<glyph name="uni2074" format="1">
  <advance width="630"/>
  <unicode hex="2074"/>
  <outline>
    <contour>
      <point x="576" y="973" type="line" smooth="no"/>
      <point x="537" y="973" type="line" smooth="no"/>
      <point x="537" y="1592" type="line" smooth="no"/>
      <point x="214" y="1592" type="line" smooth="no"/>
      <point x="27" y="951" type="line" smooth="no"/>
      <point x="27" y="802" type="line" smooth="no"/>
      <point x="330" y="802" type="line" smooth="no"/>
      <point x="330" y="650" type="line" smooth="no"/>
      <point x="537" y="650" type="line" smooth="no"/>
      <point x="537" y="802" type="line" smooth="no"/>
      <point x="576" y="802" type="line" smooth="no"/>
    </contour>
    <contour>
      <point x="220" y="973" type="line" smooth="no"/>
      <point x="330" y="1378" type="line" smooth="no"/>
      <point x="330" y="973" type="line" smooth="no"/>
    </contour>
  </outline>
</glyph>
<glyph name="lessequal" format="1">
  <advance width="487"/>
  <unicode hex="2264"/>
  <outline>
    <contour>
      <point x="-41" y="637" type="line" smooth="no"/>
      <point x="-41" y="1051" type="line" smooth="no"/>
      <point x="529" y="1392" type="line" smooth="no"/>
      <point x="529" y="1033" type="line" smooth="no"/>
      <point x="187" y="841" type="line" smooth="no"/>
      <point x="529" y="650" type="line" smooth="no"/>
      <point x="529" y="292" type="line" smooth="no"/>
    </contour>
    <contour>
      <point x="-14" y="509" type="line" smooth="no"/>
      <point x="502" y="509" type="line" smooth="no"/>
      <point x="502" y="741" type="line" smooth="no"/>
      <point x="-14" y="741" type="line" smooth="no"/>
    </contour>
  </outline>
</glyph>
